HIERARCHY
ROOT Hips
{
	OFFSET 0.00000 0.00000 0.00000
	CHANNELS 6 Xposition Yposition Zposition Zrotation Yrotation Xrotation 
	JOINT LHipJoint
	{
		OFFSET 0 0 0
		CHANNELS 3 Zrotation Yrotation Xrotation
		JOINT LeftUpLeg
		{
			OFFSET 1.62964 -1.40469 0.78906
			CHANNELS 3 Zrotation Yrotation Xrotation
			JOINT LeftLeg
			{
				OFFSET 2.29640 -6.30932 0.00000
				CHANNELS 3 Zrotation Yrotation Xrotation
				JOINT LeftFoot
				{
					OFFSET 2.29451 -6.30412 0.00000
					CHANNELS 3 Zrotation Yrotation Xrotation
					JOINT LeftToeBase
					{
						OFFSET 0.03611 -0.09921 1.56387
						CHANNELS 3 Zrotation Yrotation Xrotation
						End Site
						{
							OFFSET 0.00000 -0.00000 0.80291
						}
					}
				}
			}
		}
	}
	JOINT RHipJoint
	{
		OFFSET 0 0 0
		CHANNELS 3 Zrotation Yrotation Xrotation
		JOINT RightUpLeg
		{
			OFFSET -1.73712 -1.40469 0.78906
			CHANNELS 3 Zrotation Yrotation Xrotation
			JOINT RightLeg
			{
				OFFSET -2.28137 -6.26801 0.00000
				CHANNELS 3 Zrotation Yrotation Xrotation
				JOINT RightFoot
				{
					OFFSET -2.28681 -6.28298 0.00000
					CHANNELS 3 Zrotation Yrotation Xrotation
					JOINT RightToeBase
					{
						OFFSET -0.15927 -0.43759 1.61103
						CHANNELS 3 Zrotation Yrotation Xrotation
						End Site
						{
							OFFSET -0.00000 -0.00000 0.84630
						}
					}
				}
			}
		}
	}
	JOINT LowerBack
	{
		OFFSET 0 0 0
		CHANNELS 3 Zrotation Yrotation Xrotation
		JOINT Spine
		{
			OFFSET -0.04227 2.04338 -0.00225
			CHANNELS 3 Zrotation Yrotation Xrotation
			JOINT Spine1
			{
				OFFSET -0.02148 2.04482 -0.04273
				CHANNELS 3 Zrotation Yrotation Xrotation
				JOINT Neck
				{
					OFFSET 0 0 0
					CHANNELS 3 Zrotation Yrotation Xrotation
					JOINT Neck1
					{
						OFFSET 0.09180 1.44629 0.19359
						CHANNELS 3 Zrotation Yrotation Xrotation
						JOINT Head
						{
							OFFSET 0.00887 1.40645 0.14750
							CHANNELS 3 Zrotation Yrotation Xrotation
							End Site
							{
								OFFSET -0.00669 1.50671 0.03707
							}
						}
					}
				}
				JOINT LeftShoulder
				{
					OFFSET 0 0 0
					CHANNELS 3 Zrotation Yrotation Xrotation
					JOINT LeftArm
					{
						OFFSET 2.17674 1.86763 -0.06520
						CHANNELS 3 Zrotation Yrotation Xrotation
						JOINT LeftForeArm
						{
							OFFSET 4.65776 -0.00000 0.00000
							CHANNELS 3 Zrotation Yrotation Xrotation
							JOINT LeftHand
							{
								OFFSET 3.55539 -0.00000 0.00000
								CHANNELS 3 Zrotation Yrotation Xrotation
								JOINT LeftFingerBase
								{
									OFFSET 0 0 0
									CHANNELS 3 Zrotation Yrotation Xrotation
									JOINT LeftHandIndex1
									{
										OFFSET 0.70726 -0.00000 0.00000
										CHANNELS 3 Zrotation Yrotation Xrotation
										End Site
										{
											OFFSET 0.57022 -0.00000 0.00000
										}
									}
								}
								JOINT LThumb
								{
									OFFSET 0 0 0
									CHANNELS 3 Zrotation Yrotation Xrotation
									End Site
									{
										OFFSET 0.57892 -0.00000 0.57892
									}
								}
							}
						}
					}
				}
				JOINT RightShoulder
				{
					OFFSET 0 0 0
					CHANNELS 3 Zrotation Yrotation Xrotation
					JOINT RightArm
					{
						OFFSET -2.80694 1.55459 -0.32496
						CHANNELS 3 Zrotation Yrotation Xrotation
						JOINT RightForeArm
						{
							OFFSET -4.71925 -0.00000 -0.00000
							CHANNELS 3 Zrotation Yrotation Xrotation
							JOINT RightHand
							{
								OFFSET -3.56990 -0.00000 0.00000
								CHANNELS 3 Zrotation Yrotation Xrotation
								JOINT RightFingerBase
								{
									OFFSET 0 0 0
									CHANNELS 3 Zrotation Yrotation Xrotation
									JOINT RightHandIndex1
									{
										OFFSET -0.50776 -0.00000 0.00000
										CHANNELS 3 Zrotation Yrotation Xrotation
										End Site
										{
											OFFSET -0.40937 -0.00000 0.00000
										}
									}
								}
								JOINT RThumb
								{
									OFFSET 0 0 0
									CHANNELS 3 Zrotation Yrotation Xrotation
									End Site
									{
										OFFSET -0.41562 -0.00000 0.41562
									}
								}
							}
						}
					}
				}
			}
		}
	}
}
MOTION
Frames: 9
Frame Time: .0083333
13.9111 17.3415 20.2088 163.4540 -8.3773 -161.6660 0.0000 0.0000 0.0000 6.8926 -20.3763 -29.9376 0.6033 4.9720 13.8287 -0.9166 19.3401 3.3740 0.3918 -4.0193 -11.1309 0.0000 0.0000 0.0000 -5.6112 10.7460 -19.5066 -4.3740 -12.6421 38.0430 -4.4236 -2.2632 -40.7019 -1.2534 7.0977 -20.0050 0.9634 0.4963 -18.3403 -1.2288 0.5899 3.0445 -1.7558 0.4097 13.8239 1.4467 4.9774 -1.2279 -1.9593 5.6542 22.5474 -0.5842 2.1012 7.1910 0.0000 0.0000 0.0000 -81.5087 7.3478 16.4585 12.8386 -21.0503 -2.3950 -0.0000 -0.0000 5.7282 19.4187 -14.3074 -4.9789 -7.1250 0.0000 -0.0000 -5.4838 14.8960 3.9080 0.0000 0.0000 0.0000 75.4122 -0.8062 13.2331 -24.5462 35.7365 -8.0234 0.0000 -0.0000 -4.9525 -9.1321 -56.8854 7.6682 7.1250 -0.0000 -0.0000 82.5520 -75.3184 -67.2547
13.8174 17.3237 20.1835 163.3580 -8.2925 -161.6530 0.0000 0.0000 0.0000 6.7356 -20.4563 -29.9115 0.5803 4.8778 13.5605 -0.9123 19.3885 3.5287 0.2657 -3.3159 -9.1595 0.0000 0.0000 0.0000 -6.0783 10.8036 -19.2485 -4.3594 -12.6239 37.9763 -4.4778 -2.1090 -40.8978 -1.2379 7.0552 -19.8790 0.9407 0.4003 -18.3227 -1.1454 0.4592 3.1669 -1.6886 0.3463 13.9502 1.1095 5.1074 -1.3210 -1.9391 5.8901 22.3550 -0.5032 2.2032 7.1370 -0.0000 0.0000 0.0000 -81.8547 7.2949 15.5957 12.8346 -21.0444 -2.3936 -0.0000 -0.0000 6.1463 19.5494 -14.1301 -4.9544 -7.1250 0.0000 -0.0000 -5.3885 15.0686 3.8195 -0.0000 0.0000 0.0000 74.9938 -0.3798 13.7779 -24.9305 36.1329 -8.2489 0.0000 -0.0000 -4.7318 -8.3558 -55.2949 6.8850 7.1250 -0.0000 -0.0000 76.6667 -74.8784 -60.9920
13.7284 17.3029 20.1626 163.3390 -8.3825 -161.6550 0.0000 0.0000 0.0000 6.6367 -20.4153 -30.0782 0.5683 4.8279 13.4184 -0.8140 19.0747 4.5219 0.2432 -3.1734 -8.7619 0.0000 0.0000 0.0000 -6.3872 10.7627 -18.9977 -4.3679 -12.6345 38.0152 -4.5466 -2.0067 -41.1752 -1.2148 6.9915 -19.6901 0.9535 0.3441 -18.2710 -1.0790 0.3749 3.2783 -1.6469 0.3075 14.0462 1.0765 5.1884 -1.3977 -2.0370 6.0555 22.1707 -0.5160 2.2872 7.0951 0.0000 -0.0000 0.0000 -81.9404 7.3203 15.3187 12.8821 -21.1142 -2.4106 -0.0000 -0.0000 6.0927 19.3652 -14.1796 -4.9209 -7.1250 0.0000 -0.0000 -5.5159 15.0350 3.9147 0.0000 -0.0000 0.0000 74.8042 -0.0861 14.0272 -25.2296 36.4378 -8.4259 0.0000 -0.0000 -4.7707 -8.1130 -55.2386 6.6796 7.1250 -0.0000 -0.0000 76.5215 -74.7809 -60.7411
13.6355 17.2829 20.1376 163.1340 -8.2574 -161.6010 0.0000 0.0000 0.0000 6.3848 -20.6325 -30.0760 0.5488 4.7458 13.1850 -0.7791 19.0154 4.9415 0.1977 -2.8630 -7.8975 0.0000 0.0000 0.0000 -7.0238 10.7161 -18.8451 -4.3591 -12.6235 37.9750 -4.5923 -1.9342 -41.3577 -1.2295 7.0323 -19.8112 0.7479 0.3920 -18.2506 -1.1098 0.4917 3.3404 -1.5297 0.3464 14.1096 1.1478 5.1571 -1.4069 -2.1180 6.0275 22.1490 -0.5554 2.2757 7.0940 -0.0000 -0.0000 0.0000 -81.8837 7.4235 15.4934 12.9837 -21.2633 -2.4474 -0.0000 -0.0000 5.7516 19.0609 -14.1058 -4.8133 -7.1250 0.0000 -0.0000 -5.7213 15.1422 4.0488 -0.0000 -0.0000 0.0000 74.6607 0.1657 14.1379 -25.3227 36.5321 -8.4813 0.0000 -0.0000 -4.7985 -7.9318 -56.3709 6.6172 7.1250 -0.0000 -0.0000 80.7400 -74.8557 -64.9347
13.5331 17.2707 20.1109 162.9860 -8.0617 -161.7680 0.0000 0.0000 0.0000 6.0246 -20.9338 -29.6277 0.5168 4.6076 12.7926 -0.7840 19.0330 4.8978 0.1609 -2.5842 -7.1232 0.0000 0.0000 0.0000 -7.5775 10.6503 -18.3404 -4.3053 -12.5560 37.7283 -4.6397 -1.6132 -41.4690 -1.2050 6.9644 -19.6101 0.7085 0.4847 -17.9444 -1.1594 0.6333 3.4180 -1.5208 0.4109 14.0218 1.2878 4.9654 -1.4448 -2.3090 5.7739 22.2484 -0.6567 2.1417 7.1386 -0.0000 -0.0000 0.0000 -81.8289 7.6592 15.7312 13.1321 -21.4805 -2.5015 -0.0000 -0.0000 5.4708 19.2364 -13.9769 -4.8176 -7.1250 0.0000 -0.0000 -5.5973 15.2599 3.9460 -0.0000 -0.0000 0.0000 74.4950 0.4556 14.2155 -25.3316 36.5410 -8.4865 0.0000 -0.0000 -4.7588 -7.4525 -56.1501 6.2001 7.1250 -0.0000 -0.0000 80.0078 -74.6624 -63.9937
13.4230 17.2527 20.0936 163.0400 -8.0766 -161.5920 0.0000 0.0000 0.0000 6.0330 -21.1150 -29.8738 0.5066 4.5624 12.6645 -0.7465 18.7623 5.0393 0.1254 -2.2823 -6.2865 0.0000 0.0000 0.0000 -7.9824 10.3372 -18.1726 -4.2255 -12.4545 37.3595 -4.6541 -1.4484 -41.4826 -1.2516 7.0927 -19.9902 1.0437 0.5773 -17.9282 -1.2176 0.6875 3.3707 -1.7610 0.4661 13.9646 1.4968 4.7525 -1.4449 -2.4890 5.4824 22.3081 -0.7700 1.9977 7.1635 -0.0000 -0.0000 0.0000 -81.6466 7.8797 15.9228 13.2322 -21.6265 -2.5382 -0.0000 -0.0000 5.2046 19.2993 -13.9521 -4.8262 -7.1250 0.0000 -0.0000 -5.5535 15.2795 3.9124 -0.0000 -0.0000 0.0000 74.5047 0.7423 14.0830 -25.3005 36.5095 -8.4680 0.0000 -0.0000 -4.5996 -7.3453 -57.1641 6.1817 7.1250 -0.0000 -0.0000 83.7467 -74.6977 -67.7435
13.3312 17.2288 20.0662 163.3730 -7.7662 -161.6240 0.0000 0.0000 0.0000 6.3885 -20.9089 -29.8727 0.4898 4.4874 12.4522 -0.7120 18.5417 5.2189 0.1338 -2.3574 -6.4944 0.0000 0.0000 0.0000 -8.0275 10.6658 -18.1001 -4.1838 -12.4011 37.1660 -4.5887 -2.1449 -41.4090 -1.5388 7.8309 -22.2015 1.3071 0.7377 -17.8519 -1.1735 0.8390 3.4346 -1.8168 0.5570 14.0041 1.5316 4.7842 -1.4331 -2.4887 5.5416 22.1557 -0.7713 2.0398 7.1139 0.0000 0.0000 0.0000 -81.5687 7.9136 15.6385 13.2626 -21.6708 -2.5494 -0.0000 -0.0000 5.2031 18.9321 -14.0537 -4.7613 -7.1250 0.0000 -0.0000 -5.8077 15.2091 4.1021 0.0000 0.0000 0.0000 74.5014 1.0423 14.0743 -25.3552 36.5648 -8.5006 0.0000 -0.0000 -4.5832 -6.5474 -55.7721 5.4209 7.1250 -0.0000 -0.0000 78.8401 -74.2919 -62.4261
13.2202 17.2073 20.0515 163.4670 -7.7861 -161.3880 0.0000 0.0000 0.0000 6.4266 -20.9957 -30.2422 0.4767 4.4278 12.2835 -0.6366 18.2620 5.8929 0.2446 -3.1824 -8.7870 0.0000 0.0000 0.0000 -8.4063 10.2702 -18.3126 -4.1946 -12.4150 37.2162 -4.5697 -2.4242 -41.4143 -1.7833 8.3993 -23.9336 1.5684 0.7534 -17.8079 -1.1516 0.7981 3.4070 -1.9530 0.5583 13.9477 1.4095 4.8501 -1.5242 -2.4526 5.6541 22.0816 -0.7291 2.0947 7.1033 -0.0000 -0.0000 0.0000 -81.6081 8.0559 15.6492 13.3834 -21.8463 -2.5942 -0.0000 -0.0000 4.9297 18.6064 -14.2887 -4.7498 -7.1250 0.0000 -0.0000 -6.0369 14.9955 4.2936 -0.0000 -0.0000 0.0000 74.3473 1.2857 14.2725 -25.5087 36.7195 -8.5923 0.0000 -0.0000 -4.6837 -7.3409 -53.4231 5.9066 7.1250 -0.0000 -0.0000 70.3622 -74.0998 -54.1539
13.1163 17.1834 20.0246 163.4410 -7.7644 -161.2450 0.0000 0.0000 0.0000 6.3186 -21.1216 -30.4369 0.4658 4.3778 12.1421 -0.5817 18.0478 6.3635 0.2983 -3.5119 -9.7074 0.0000 0.0000 0.0000 -8.8691 10.0321 -18.2401 -4.1994 -12.4211 37.2384 -4.6261 -2.2982 -41.6253 -1.8317 8.5065 -24.2633 1.4588 0.7929 -17.8326 -1.1271 0.8731 3.4275 -1.8409 0.5830 13.9876 1.3390 4.7611 -1.5907 -2.3755 5.5195 22.1442 -0.7001 2.0281 7.1280 -0.0000 -0.0000 0.0000 -81.5616 8.2992 16.1464 13.5648 -22.1091 -2.6621 -0.0000 -0.0000 4.3630 18.6256 -14.3688 -4.7810 -7.1250 0.0000 -0.0000 -6.0261 14.9104 4.2969 -0.0000 -0.0000 0.0000 74.2333 1.3802 14.3610 -25.7372 36.9480 -8.7292 0.0000 -0.0000 -4.7989 -6.3209 -58.1088 5.3729 7.1250 -0.0000 -0.0000 87.2535 -74.3544 -70.9047
